<svg id="Layer_1" data-name="Layer 1" xmlns="http://www.w3.org/2000/svg" viewBox="0 0 122.88 121.86"><defs><style>.cls-1{fill:#10a64a;}.cls-1,.cls-2,.cls-3,.cls-4{fill-rule:evenodd;}.cls-2{fill:#0bb34b;}.cls-3{fill:#fff;}.cls-4{fill:#303030;}</style></defs><title>approve</title><path class="cls-1" d="M61.44,0a14.05,14.05,0,0,1,8.45,2.65c3.3,2.1,7,6.23,11.61,8.86C88,15.21,99.9,10.12,106,19.21c3.57,5.31,3.73,9.46,4,13.57.29,4.43,1.07,8.51,5.6,14.51,7.51,9.93,9.07,16.54,5.2,23.43-2.63,4.69-8.19,7.3-9.47,10.28-2.74,6.33.29,11.1-3.46,18.47a19.66,19.66,0,0,1-12,10.21c-4.5,1.46-9-.64-12.63.87-6.34,2.67-11,8.86-16.06,10.42a19.47,19.47,0,0,1-11.64,0c-5-1.56-9.72-7.75-16.06-10.42-3.61-1.51-8.13.59-12.63-.87A19.66,19.66,0,0,1,15,99.47C11.23,92.1,14.26,87.33,11.52,81,10.24,78,4.68,75.41,2,70.72c-3.87-6.89-2.3-13.5,5.21-23.43,4.53-6,5.31-10.08,5.6-14.51.26-4.11.43-8.26,4-13.57,6.13-9.09,18.08-4,24.53-7.69C46,8.89,49.69,4.76,53,2.66A14.05,14.05,0,0,1,61.44,0Z"/><path class="cls-2" d="M111,38.83a27,27,0,0,0,4.59,8.46c7.51,9.93,9.07,16.54,5.2,23.43-2.63,4.69-8.19,7.3-9.47,10.28-2.74,6.33.29,11.1-3.46,18.47a19.68,19.68,0,0,1-12,10.21c-4.5,1.45-9-.64-12.63.87-6.34,2.67-11,8.85-16.06,10.42a19.47,19.47,0,0,1-11.64,0c-5-1.57-9.72-7.75-16.06-10.42-3.61-1.51-8.13.58-12.63-.87A19.66,19.66,0,0,1,15,99.47a18.15,18.15,0,0,1-2-6.91l98-53.73Z"/><path class="cls-3" d="M61.26,25.5A36.37,36.37,0,1,1,24.89,61.87,36.37,36.37,0,0,1,61.26,25.5Z"/><path class="cls-4" d="M51.41,54.61l7.12,6.71L72.81,46.8c1.41-1.43,2.3-2.58,4-.79l5.67,5.79c1.85,1.84,1.75,2.91,0,4.63L61.75,76.83c-3.69,3.62-3,3.85-6.8.12L41.88,64A1.65,1.65,0,0,1,42,61.41L48.6,54.6c1-1,1.79-1,2.81,0Z"/></svg>